<?xml version="1.0" encoding="iso-8859-1"?>
<!-- Generator: Adobe Illustrator 19.1.0, SVG Export Plug-In . SVG Version: 6.00 Build 0)  -->
<svg version="1.1" id="Capa_1" xmlns="http://www.w3.org/2000/svg" xmlns:xlink="http://www.w3.org/1999/xlink" x="0px" y="0px"
	 viewBox="0 0 470.566 470.566" style="enable-background:new 0 0 470.566 470.566;" xml:space="preserve">
<g>
	<path style="fill:#F2D24C;" d="M245.383,401.503L245.383,401.503c-5.691,3.261-12.797,3.261-18.488,0l0,0
		c-36.089-20.679-60.163-41.423-65.222-81.376l-7.889-72.001c-6.467-45.39,71.086-37.669,118.878-37.669l-65.018,3.205
		c47.791,0,116.295-9.638,109.828,35.753l-6.867,70.712C305.546,360.08,281.472,380.824,245.383,401.503z"/>
	<path style="fill:#FFFFFF;" d="M268.124,341.39c0,17.664-14.32,31.984-31.984,31.984s-31.984-14.32-31.984-31.984H268.124z"/>
	<g>
		<path style="fill:#4D4D4D;" d="M184.97,302.702c5.3-14.443,29.812-14.788,34.964,0c-2.643-0.706-5.176-1.749-7.865-2.308
			c-3.176-0.66-6.363-1.123-9.617-1.136c-3.159-0.012-6.311,0.406-9.389,1.08C190.299,300.943,187.696,302,184.97,302.702z"/>
		<path style="fill:#4D4D4D;" d="M256.499,302.702c5.3-14.443,29.812-14.788,34.964,0c-2.643-0.706-5.176-1.749-7.865-2.308
			c-3.176-0.66-6.363-1.123-9.617-1.136c-3.159-0.012-6.311,0.406-9.389,1.08C261.828,300.943,259.225,302,256.499,302.702z"/>
	</g>
	<path style="fill:#F48438;" d="M461.089,155.353c7.101-4.976,10.568-13.596,9.172-22.154c-1.096-6.724-0.93-13.193-6.81-19.212
		c-9.681-9.91-33.455-3.871-44.085-12.19c-10.871-8.508-10.759-33.011-22.448-39.855c-11.875-6.953-33.207,5.161-45.742-0.074
		c-12.666-5.289-19.044-28.957-32.193-32.492c-13.229-3.557-30.633,13.729-44.156,11.948c-13.561-1.786-25.889-22.983-39.549-22.983
		c-13.659,0-25.987,21.198-39.548,22.984c-13.523,1.781-30.927-15.505-44.156-11.947c-13.148,3.535-19.526,27.202-32.192,32.492
		c-12.534,5.235-33.866-6.879-45.741,0.074c-11.688,6.843-11.576,31.347-22.446,39.854c-10.629,8.319-34.403,2.279-44.083,12.189
		C1.234,120.007,1.4,126.476,0.304,133.2c-1.395,8.558,2.071,17.177,9.172,22.153l0,0c48.361,36.31,96.723,72.621,145.084,108.932
		c40.379-53.779,121.066-53.779,161.445,0C364.367,227.975,412.728,191.663,461.089,155.353L461.089,155.353z"/>
	<path style="fill:#F4E84A;" d="M390.259,154.949c4.874-3.415,7.253-9.331,6.295-15.205c-0.752-4.615-0.638-9.055-4.674-13.186
		c-6.644-6.802-22.961-2.657-30.256-8.366c-7.461-5.839-7.384-22.656-15.406-27.353c-8.15-4.772-22.791,3.542-31.394-0.051
		c-8.693-3.63-13.071-19.874-22.095-22.3c-9.08-2.441-21.024,9.423-30.305,8.2c-9.307-1.226-17.768-15.774-27.143-15.774
		c-9.375,0-17.836,14.549-27.143,15.774c-9.281,1.222-21.226-10.641-30.305-8.2c-9.024,2.426-13.401,18.67-22.094,22.3
		c-8.603,3.593-23.243-4.721-31.393,0.051c-8.022,4.697-7.945,21.514-15.406,27.353c-7.295,5.709-23.612,1.564-30.255,8.366
		c-4.035,4.131-3.921,8.571-4.673,13.185c-0.958,5.873,1.422,11.789,6.295,15.204l0,0c33.191,24.921,66.383,49.842,99.574,74.762
		c27.713-36.91,83.091-36.91,110.804,0C323.876,204.791,357.068,179.87,390.259,154.949L390.259,154.949z"/>
	<path style="fill:#F2D24C;" d="M335.172,173.524c3.141-2.201,4.675-6.014,4.057-9.8c-0.485-2.974-0.411-5.836-3.012-8.499
		c-4.282-4.384-14.799-1.712-19.501-5.392c-4.809-3.764-4.76-14.603-9.93-17.63c-5.253-3.076-14.69,2.283-20.235-0.033
		c-5.603-2.34-8.425-12.809-14.241-14.373c-5.852-1.573-13.551,6.073-19.533,5.285c-5.999-0.79-11.452-10.167-17.495-10.167
		c-6.042,0-11.496,9.377-17.495,10.167c-5.982,0.788-13.681-6.859-19.533-5.285c-5.816,1.564-8.638,12.033-14.241,14.373
		c-5.545,2.316-14.981-3.043-20.234,0.033c-5.17,3.027-5.121,13.867-9.93,17.63c-4.702,3.68-15.219,1.008-19.501,5.392
		c-2.601,2.663-2.527,5.524-3.012,8.499c-0.617,3.786,0.916,7.599,4.057,9.8l0,0c21.393,16.062,42.787,32.125,64.18,48.188
		c17.862-23.79,53.555-23.79,71.418,0C292.385,205.649,313.778,189.586,335.172,173.524L335.172,173.524z"/>
	<g>
		<path style="fill:#F48438;" d="M192.236,228.964c-1.32,0-2.61-0.53-3.54-1.46c-0.931-0.93-1.46-2.22-1.46-3.54
			c0-1.32,0.529-2.61,1.46-3.54c0.93-0.93,2.22-1.46,3.54-1.46c1.31,0,2.6,0.53,3.529,1.46c0.931,0.93,1.471,2.22,1.471,3.54
			c0,1.32-0.54,2.61-1.471,3.54C194.836,228.434,193.546,228.964,192.236,228.964z"/>
		<path style="fill:#F48438;" d="M235.256,272.014c-0.01,0-0.01,0-0.01,0H235.256c-2.77,0-5-2.24-5-5.01l0,0
			c0-2.75,2.24-4.99,5-4.99l0,0l0,0l0,0c2.76,0,5,2.24,5,5l0,0C240.256,269.774,238.016,272.014,235.256,272.014L235.256,272.014
			L235.256,272.014z M247.105,265.674c-1.05-2.55,0.16-5.48,2.711-6.53l0,0c2.55-1.06,5.47,0.15,6.529,2.71l0,0
			c1.061,2.55-0.16,5.47-2.71,6.53l0,0c-0.62,0.26-1.27,0.38-1.91,0.38l0,0C249.766,268.764,247.906,267.594,247.105,265.674z
			 M216.866,268.354c-2.55-1.06-3.761-3.98-2.7-6.53l0,0c1.06-2.55,3.99-3.76,6.54-2.7l0,0l0,0l0,0c2.55,1.06,3.76,3.98,2.7,6.53
			l0,0c-0.801,1.93-2.66,3.09-4.62,3.09l0,0C218.145,268.744,217.496,268.614,216.866,268.354z M262.156,257.964
			c-1.96-1.95-1.95-5.12,0-7.07l0,0c1.96-1.95,5.12-1.95,7.069,0.01l0,0c1.95,1.96,1.95,5.12,0,7.07l0,0
			c-0.979,0.98-2.26,1.46-3.529,1.46l0,0C264.406,259.434,263.126,258.944,262.156,257.964z M201.296,257.934L201.296,257.934
			c-1.95-1.95-1.95-5.12,0.01-7.07l0,0c1.95-1.95,5.11-1.95,7.07,0l0,0c1.95,1.95,1.95,5.12-0.01,7.07l0,0
			c-0.971,0.98-2.25,1.46-3.53,1.46l0,0C203.556,259.394,202.276,258.914,201.296,257.934z M273.126,245.114
			c-2.55-1.06-3.76-3.99-2.7-6.54l0,0c1.061-2.55,3.99-3.76,6.54-2.69l0,0c2.55,1.06,3.75,3.98,2.69,6.53l0,0
			c-0.801,1.92-2.66,3.08-4.62,3.08l0,0C274.395,245.494,273.746,245.374,273.126,245.114z M190.876,242.354h0.01
			c-1.06-2.55,0.15-5.47,2.7-6.53l0,0c2.55-1.06,5.47,0.15,6.53,2.7l0,0l0,0l0,0c1.06,2.55-0.15,5.48-2.7,6.54l0,0
			c-0.63,0.26-1.28,0.38-1.91,0.38l0,0C193.546,245.444,191.676,244.284,190.876,242.354z"/>
		<path style="fill:#F48438;" d="M278.336,228.964c-1.32,0-2.61-0.53-3.54-1.46c-0.93-0.93-1.46-2.22-1.46-3.54
			c0-1.32,0.53-2.6,1.46-3.54c0.93-0.93,2.22-1.46,3.54-1.46c1.31,0,2.6,0.53,3.53,1.46c0.93,0.93,1.47,2.22,1.47,3.54
			c0,1.32-0.54,2.61-1.47,3.54C280.935,228.434,279.645,228.964,278.336,228.964z"/>
	</g>
	<g>
		<path style="fill:#F48438;" d="M152.486,343.984c-1.311,0-2.601-0.53-3.53-1.46c-0.93-0.93-1.47-2.22-1.47-3.54
			c0-1.32,0.54-2.61,1.47-3.53c0.93-0.93,2.22-1.47,3.53-1.47c1.319,0,2.609,0.54,3.54,1.47c0.93,0.93,1.46,2.21,1.46,3.53
			c0,1.32-0.53,2.61-1.46,3.54C155.096,343.454,153.806,343.984,152.486,343.984z"/>
		<path style="fill:#F48438;" d="M239.336,422.214c-0.29-2.74,1.71-5.2,4.46-5.49l0,0c2.74-0.28,5.2,1.72,5.48,4.46l0,0
			c0.29,2.75-1.71,5.21-4.46,5.49l0,0c-0.171,0.02-0.351,0.03-0.521,0.03l0,0C241.766,426.704,239.596,424.784,239.336,422.214z
			 M226.406,426.664c-2.75-0.28-4.74-2.74-4.46-5.49l0,0c0.29-2.75,2.75-4.74,5.5-4.45l0,0c2.739,0.28,4.739,2.74,4.449,5.49l0,0
			c-0.27,2.57-2.439,4.48-4.97,4.48l0,0C226.756,426.694,226.586,426.684,226.406,426.664z M256.556,419.654
			c-0.85-2.63,0.59-5.45,3.221-6.3l0,0c2.63-0.85,5.449,0.59,6.3,3.21l0,0c0.85,2.63-0.59,5.45-3.21,6.3l0,0
			c-0.521,0.17-1.04,0.25-1.55,0.25l0,0C259.206,423.114,257.246,421.764,256.556,419.654z M208.376,422.844
			c-2.63-0.85-4.07-3.67-3.21-6.3l0,0c0.85-2.63,3.67-4.06,6.3-3.21l0,0l0,0l0,0c2.63,0.85,4.061,3.67,3.21,6.3l0,0
			c-0.689,2.11-2.649,3.46-4.75,3.46l0,0C209.406,423.094,208.886,423.014,208.376,422.844z M272.876,413.544
			c-1.39-2.4-0.57-5.45,1.82-6.84l0,0c2.39-1.38,5.449-0.56,6.83,1.83l0,0c1.39,2.39,0.569,5.45-1.82,6.83l0,0
			c-0.79,0.46-1.65,0.68-2.5,0.68l0,0C275.475,416.044,273.796,415.144,272.876,413.544z M191.546,415.344
			c-2.39-1.39-3.21-4.45-1.82-6.84l0,0c1.38-2.39,4.44-3.2,6.83-1.82l0,0c2.391,1.38,3.21,4.44,1.82,6.83l0,0
			c-0.92,1.6-2.6,2.5-4.33,2.5l0,0C193.196,416.014,192.336,415.794,191.546,415.344z M287.546,404.164
			c-1.85-2.06-1.68-5.22,0.37-7.06l0,0c2.05-1.85,5.22-1.68,7.06,0.37l0,0c1.851,2.05,1.681,5.21-0.37,7.06l0,0
			c-0.949,0.86-2.149,1.28-3.34,1.28l0,0C289.895,405.814,288.536,405.254,287.546,404.164z M176.656,404.494
			c-2.061-1.85-2.221-5.01-0.37-7.06l0,0c1.85-2.05,5.01-2.21,7.06-0.36l0,0c2.05,1.84,2.221,5,0.37,7.06l0,0
			c-0.99,1.09-2.35,1.65-3.72,1.65l0,0C178.806,405.784,177.605,405.354,176.656,404.494z M299.956,391.954
			c-2.23-1.63-2.72-4.76-1.09-6.99l0,0c1.62-2.23,4.75-2.72,6.979-1.1l0,0c2.23,1.63,2.73,4.76,1.101,6.99l0,0
			c-0.98,1.34-2.5,2.05-4.051,2.05l0,0C301.876,392.904,300.846,392.594,299.956,391.954z M164.326,390.814
			c-1.63-2.24-1.141-5.37,1.1-6.99l0,0c2.23-1.62,5.36-1.13,6.98,1.1l0,0c1.63,2.23,1.13,5.36-1.101,6.99l0,0
			c-0.89,0.64-1.92,0.95-2.939,0.95l0,0C166.826,392.864,165.296,392.154,164.326,390.814z M309.576,377.444
			c-2.521-1.13-3.65-4.09-2.521-6.61l0,0c1.12-2.52,4.08-3.65,6.601-2.52l0,0c2.52,1.12,3.649,4.08,2.529,6.6l0,0
			c-0.84,1.86-2.659,2.96-4.569,2.96l0,0C310.935,377.874,310.236,377.734,309.576,377.444z M155.096,374.854
			c-1.13-2.52,0-5.48,2.53-6.6l0,0c2.52-1.13,5.47,0.01,6.6,2.53l0,0c1.12,2.52-0.01,5.47-2.529,6.6l0,0
			c-0.66,0.3-1.351,0.44-2.03,0.44l0,0C157.746,377.824,155.926,376.714,155.096,374.854z M315.956,361.234
			c-2.7-0.57-4.42-3.23-3.851-5.93l0,0l0,0l0,0c0.57-2.7,3.23-4.42,5.931-3.85l0,0c2.7,0.57,4.43,3.23,3.85,5.93l0,0
			c-0.5,2.35-2.58,3.96-4.89,3.96l0,0C316.656,361.344,316.306,361.314,315.956,361.234z M149.395,357.314L149.395,357.314
			c-0.569-2.7,1.16-5.35,3.86-5.93l0,0c2.7-0.57,5.35,1.16,5.93,3.86l0,0l0,0l0,0c0.57,2.7-1.159,5.36-3.859,5.93l0,0
			c-0.351,0.07-0.7,0.11-1.04,0.11l0,0C151.975,361.284,149.895,359.664,149.395,357.314z"/>
		<path style="fill:#F48438;" d="M318.816,343.984c-1.32,0-2.61-0.53-3.54-1.46c-0.931-0.93-1.46-2.22-1.46-3.54
			c0-1.31,0.529-2.6,1.46-3.53c0.93-0.93,2.22-1.47,3.54-1.47c1.31,0,2.6,0.54,3.529,1.47c0.931,0.93,1.471,2.22,1.471,3.53
			c0,1.32-0.54,2.6-1.471,3.54C321.416,343.454,320.126,343.984,318.816,343.984z"/>
	</g>
	<g>
		<path style="fill:#F4E84A;" d="M137.486,354.464c-1.311,0-2.601-0.53-3.53-1.46c-0.93-0.93-1.47-2.22-1.47-3.54
			c0-1.32,0.54-2.6,1.47-3.53c0.93-0.93,2.22-1.47,3.53-1.47c1.319,0,2.609,0.54,3.54,1.47c0.93,0.93,1.46,2.22,1.46,3.53
			c0,1.32-0.53,2.61-1.46,3.54C140.096,353.934,138.806,354.464,137.486,354.464z"/>
		<path style="fill:#F4E84A;" d="M239.685,447.674c-0.25-2.75,1.78-5.18,4.53-5.43l0,0c2.75-0.25,5.18,1.77,5.43,4.52l0,0
			c0.25,2.75-1.779,5.19-4.529,5.44l0,0c-0.15,0.01-0.3,0.02-0.46,0.02l0,0C242.105,452.224,239.926,450.274,239.685,447.674z
			 M226.096,452.194c-2.75-0.25-4.77-2.69-4.52-5.44l0,0c0.25-2.75,2.689-4.77,5.439-4.52l0,0c2.75,0.25,4.771,2.69,4.521,5.44l0,0
			c-0.24,2.59-2.42,4.54-4.98,4.54l0,0C226.406,452.214,226.256,452.204,226.096,452.194z M257.666,445.284
			c-0.76-2.66,0.79-5.42,3.439-6.18l0,0c2.66-0.75,5.421,0.8,6.181,3.45l0,0c0.75,2.66-0.79,5.42-3.45,6.18l0,0
			c-0.46,0.13-0.91,0.19-1.37,0.19l0,0C260.286,448.924,258.286,447.484,257.666,445.284z M207.386,448.704
			c-2.66-0.75-4.2-3.52-3.439-6.17l0,0c0.75-2.66,3.52-4.2,6.17-3.45l0,0c2.66,0.76,4.2,3.52,3.45,6.18l0,0
			c-0.631,2.2-2.631,3.63-4.811,3.63l0,0C208.306,448.894,207.846,448.834,207.386,448.704z M274.886,439.614
			c-1.229-2.47-0.229-5.47,2.25-6.71l0,0c2.47-1.23,5.47-0.22,6.7,2.25l0,0c1.23,2.47,0.23,5.47-2.24,6.71l0,0
			c-0.72,0.35-1.479,0.52-2.229,0.52l0,0C277.526,442.384,275.766,441.374,274.886,439.614z M189.636,441.824L189.636,441.824
			c-2.47-1.24-3.479-4.24-2.24-6.71l0,0c1.23-2.47,4.23-3.47,6.7-2.24l0,0l0,0l0,0c2.471,1.23,3.48,4.24,2.24,6.71l0,0
			c-0.87,1.75-2.64,2.76-4.47,2.76l0,0C191.116,442.344,190.346,442.184,189.636,441.824z M290.766,430.854
			c-1.66-2.2-1.22-5.34,0.98-7l0,0c2.2-1.66,5.34-1.23,7,0.98l0,0c1.67,2.2,1.229,5.34-0.97,7l0,0c-0.91,0.68-1.96,1.01-3.011,1.01
			l0,0C293.246,432.844,291.756,432.154,290.766,430.854z M173.466,431.784c-2.2-1.66-2.64-4.8-0.97-7l0,0c1.66-2.2,4.8-2.64,7-0.97
			l0,0c2.2,1.66,2.64,4.8,0.97,7l0,0c-0.979,1.3-2.479,1.98-3.99,1.98l0,0C175.426,432.794,174.366,432.464,173.466,431.784z
			 M304.776,419.334c-2.04-1.86-2.181-5.02-0.32-7.06l0,0c1.86-2.04,5.03-2.18,7.07-0.32l0,0c2.029,1.86,2.18,5.03,0.319,7.07
			l-0.01-0.01c-0.98,1.08-2.33,1.63-3.69,1.63l0,0C306.946,420.644,305.736,420.214,304.776,419.334z M159.406,418.964
			c-1.86-2.04-1.721-5.21,0.33-7.07l0,0c2.04-1.86,5.199-1.71,7.06,0.33l0,0c1.86,2.04,1.71,5.2-0.33,7.06l0,0
			c-0.96,0.88-2.16,1.31-3.36,1.31l0,0C161.746,420.594,160.395,420.044,159.406,418.964z M316.446,405.454
			c-2.351-1.46-3.07-4.54-1.61-6.88l0,0c1.46-2.35,4.54-3.07,6.89-1.61l0,0c2.341,1.45,3.061,4.54,1.61,6.88l0,0
			c-0.95,1.53-2.58,2.36-4.26,2.36l0,0C318.176,406.204,317.266,405.964,316.446,405.454z M147.926,403.774
			c-1.46-2.34-0.729-5.43,1.61-6.88l0,0c2.35-1.46,5.43-0.73,6.89,1.61l0,0c1.45,2.35,0.73,5.43-1.609,6.89l0,0
			c-0.83,0.51-1.74,0.75-2.631,0.75l0,0C150.506,406.144,148.876,405.304,147.926,403.774z M325.366,389.664
			c-2.57-1-3.851-3.89-2.851-6.47l0,0c1-2.57,3.9-3.85,6.48-2.85l0,0c2.57,1,3.84,3.9,2.85,6.47l0,0
			c-0.779,1.98-2.66,3.19-4.67,3.19l0,0C326.576,390.004,325.966,389.894,325.366,389.664z M139.426,386.734
			c-0.99-2.57,0.28-5.46,2.86-6.46l0,0c2.569-1,5.47,0.28,6.47,2.85l0,0c1,2.58-0.28,5.47-2.86,6.47l0,0
			c-0.59,0.23-1.199,0.34-1.81,0.34l0,0C142.086,389.934,140.196,388.724,139.426,386.734z M331.225,372.504
			c-2.72-0.5-4.5-3.12-4-5.83l0,0c0.511-2.71,3.12-4.51,5.83-4l0,0c2.721,0.51,4.511,3.12,4,5.83l0,0
			c-0.45,2.41-2.55,4.09-4.91,4.09l0,0C331.846,372.594,331.536,372.564,331.225,372.504z M134.225,368.424L134.225,368.424
			c-0.5-2.72,1.29-5.33,4-5.83l0,0c2.721-0.5,5.33,1.28,5.83,4l0,0l0,0l0,0c0.511,2.72-1.29,5.33-4,5.83l0,0
			c-0.31,0.06-0.609,0.09-0.92,0.09l0,0C136.776,372.514,134.676,370.824,134.225,368.424z"/>
		<path style="fill:#F4E84A;" d="M333.816,354.464c-1.32,0-2.61-0.53-3.54-1.46c-0.931-0.93-1.46-2.22-1.46-3.54
			c0-1.31,0.529-2.6,1.46-3.53c0.93-0.93,2.22-1.47,3.54-1.47c1.31,0,2.6,0.54,3.529,1.47c0.931,0.93,1.471,2.22,1.471,3.53
			c0,1.32-0.54,2.61-1.471,3.54C336.416,353.934,335.126,354.464,333.816,354.464z"/>
	</g>
	<g>
		<path style="fill:#F4E84A;" d="M214.185,229.854c-1.31,0-2.6-0.53-3.529-1.47c-0.931-0.93-1.471-2.22-1.471-3.53
			c0-1.32,0.54-2.6,1.471-3.54c0.93-0.93,2.22-1.46,3.529-1.46c1.32,0,2.61,0.53,3.54,1.46c0.931,0.94,1.46,2.22,1.46,3.54
			c0,1.31-0.529,2.6-1.46,3.53C216.796,229.324,215.506,229.854,214.185,229.854z"/>
		<path style="fill:#F4E84A;" d="M235.276,250.944c-2.771,0-5-2.24-5-5l0,0c0-2.76,2.239-5,5-5l0,0c2.76,0,5,2.24,5,5l0,0
			C240.276,248.704,238.036,250.944,235.276,250.944L235.276,250.944L235.276,250.944z M246.645,243.314
			c-1.949-1.95-1.949-5.12,0.011-7.07l0,0l0,0l0,0c1.949-1.95,5.12-1.95,7.069,0l0,0c1.95,1.96,1.95,5.12-0.01,7.08l0,0
			c-0.97,0.97-2.25,1.46-3.53,1.46l0,0C248.906,244.784,247.626,244.294,246.645,243.314z M216.836,243.304
			c-1.96-1.95-1.96-5.12,0-7.07l0,0c1.95-1.95,5.11-1.95,7.07,0l0,0c1.949,1.95,1.949,5.12,0,7.07l0,0
			c-0.98,0.98-2.261,1.47-3.54,1.47l0,0C219.086,244.774,217.806,244.284,216.836,243.304z"/>
		<path style="fill:#F4E84A;" d="M256.376,229.854c-1.32,0-2.6-0.53-3.54-1.47c-0.93-0.93-1.46-2.21-1.46-3.53
			c0-1.32,0.53-2.6,1.46-3.54c0.93-0.93,2.22-1.46,3.54-1.46s2.61,0.53,3.54,1.46c0.93,0.94,1.46,2.22,1.46,3.54
			c0,1.32-0.53,2.6-1.46,3.53C258.975,229.324,257.685,229.854,256.376,229.854z"/>
	</g>
	<path style="fill:#46B9CC;" d="M123.79,241.182c10.257,7.701,20.514,15.402,30.77,23.103c40.379-53.78,121.066-53.78,161.445,0
		c10.257-7.701,20.514-15.402,30.77-23.103c-30.059-29.874-69.683-51.768-109.466-52.267
		C196.176,188.399,154.871,210.294,123.79,241.182z"/>
	<g>
		<path style="fill:#F48438;" d="M114.185,146.394c-1.319,0-2.609-0.54-3.529-1.47c-0.931-0.92-1.471-2.21-1.471-3.53
			c0-1.32,0.54-2.61,1.471-3.54c0.92-0.93,2.21-1.46,3.529-1.46c1.32,0,2.61,0.53,3.54,1.46c0.931,0.93,1.46,2.22,1.46,3.54
			c0,1.31-0.529,2.6-1.46,3.53C116.796,145.854,115.506,146.394,114.185,146.394z"/>
		<path style="fill:#F48438;" d="M123.616,132.534c-1.74-2.14-1.41-5.29,0.729-7.03l0,0l0,0l0,0c2.15-1.74,5.29-1.42,7.04,0.73l0,0
			c1.74,2.14,1.41,5.29-0.729,7.03l0,0c-0.931,0.75-2.04,1.12-3.15,1.12l0,0C126.046,134.384,124.605,133.754,123.616,132.534z
			 M339.876,133.224c-2.15-1.74-2.47-4.89-0.73-7.03l0,0c1.74-2.14,4.891-2.47,7.04-0.73l0,0c2.141,1.75,2.46,4.9,0.721,7.04l0,0
			c-0.99,1.21-2.431,1.84-3.88,1.84l0,0C341.916,134.344,340.796,133.984,339.876,133.224z M137.806,121.554
			c-1.5-2.32-0.84-5.41,1.48-6.92l0,0c2.31-1.5,5.41-0.84,6.91,1.48l0,0c1.5,2.32,0.84,5.41-1.471,6.91l0,0
			c-0.84,0.55-1.79,0.81-2.72,0.81l0,0C140.366,123.834,138.766,123.034,137.806,121.554z M325.826,122.954
			c-2.311-1.51-2.96-4.61-1.45-6.92l0,0c1.51-2.31,4.61-2.96,6.92-1.45l0,0c2.31,1.52,2.96,4.61,1.45,6.92l0,0
			c-0.96,1.47-2.561,2.27-4.19,2.27l0,0C327.616,123.774,326.666,123.504,325.826,122.954z M153.086,112.154
			c-1.25-2.47-0.26-5.47,2.2-6.72l0,0l0,0l0,0c2.47-1.25,5.47-0.26,6.72,2.2l0,0c1.25,2.46,0.26,5.47-2.2,6.72l0,0
			c-0.72,0.37-1.5,0.54-2.25,0.54l0,0C155.725,114.894,153.966,113.894,153.086,112.154z M310.786,114.194L310.786,114.194
			c-2.45-1.26-3.42-4.28-2.16-6.73l0,0c1.27-2.46,4.28-3.42,6.729-2.16l0,0c0,0,0,0,0.011,0l0,0c2.45,1.26,3.42,4.28,2.149,6.73l0,0
			c-0.88,1.73-2.63,2.72-4.449,2.72l0,0C312.296,114.754,311.516,114.574,310.786,114.194z M169.276,104.424
			c-0.98-2.58,0.319-5.47,2.899-6.45l0,0l0,0l0,0c2.58-0.98,5.46,0.32,6.45,2.9l0,0c0.979,2.58-0.32,5.47-2.9,6.45l0,0
			c-0.58,0.22-1.18,0.33-1.77,0.33l0,0C171.935,107.654,170.036,106.424,169.276,104.424z M294.916,107.074
			c-2.57-1-3.85-3.89-2.86-6.47l0,0c1-2.58,3.9-3.86,6.471-2.86l0,0c2.579,1,3.859,3.89,2.859,6.47l0,0
			c-0.77,1.98-2.66,3.2-4.66,3.2l0,0C296.126,107.414,295.516,107.304,294.916,107.074z M186.185,98.444
			c-0.71-2.67,0.881-5.41,3.551-6.12l0,0l0,0l0,0c2.67-0.71,5.409,0.88,6.109,3.55l0,0c0.71,2.67-0.88,5.41-3.55,6.12h0.01
			c-0.43,0.11-0.87,0.17-1.29,0.17l0,0C188.806,102.164,186.776,100.684,186.185,98.444z M278.386,101.674
			c-2.66-0.71-4.25-3.46-3.53-6.12l0,0c0.711-2.67,3.461-4.25,6.12-3.54l0,0c2.67,0.72,4.25,3.46,3.54,6.13l0,0
			c-0.6,2.23-2.62,3.7-4.83,3.7l0,0C279.256,101.844,278.826,101.794,278.386,101.674z M203.616,94.234
			c-0.431-2.73,1.43-5.29,4.149-5.73l0,0l0,0l0,0c2.73-0.43,5.29,1.43,5.73,4.15l0,0c0.43,2.73-1.43,5.29-4.15,5.73l0,0
			c-0.27,0.04-0.529,0.06-0.79,0.06l0,0C206.136,98.444,204.006,96.694,203.616,94.234z M261.386,98.084
			c-2.74-0.43-4.6-2.98-4.18-5.71l0,0c0.42-2.73,2.979-4.6,5.71-4.17l0,0c2.729,0.42,4.6,2.97,4.17,5.7l0,0
			c-0.38,2.47-2.51,4.24-4.93,4.24l0,0C261.895,98.144,261.645,98.125,261.386,98.084z M221.395,91.804
			c-0.17-2.76,1.94-5.12,4.69-5.29l0,0c2.76-0.16,5.13,1.95,5.29,4.7l0,0c0.16,2.76-1.94,5.12-4.7,5.29l0,0
			c-0.1,0-0.2,0.01-0.3,0.01l0,0C223.746,96.514,221.546,94.454,221.395,91.804z M244.086,96.354c-2.76-0.12-4.9-2.46-4.77-5.22l0,0
			c0.119-2.76,2.46-4.89,5.22-4.77l0,0c2.75,0.13,4.89,2.46,4.77,5.22l0,0c-0.12,2.68-2.33,4.78-4.989,4.78l0,0
			C244.236,96.364,244.166,96.364,244.086,96.354z"/>
		<path style="fill:#F48438;" d="M356.376,146.394c-1.31,0-2.6-0.54-3.53-1.47c-0.939-0.93-1.47-2.22-1.47-3.53
			c0-1.32,0.53-2.61,1.47-3.54c0.931-0.93,2.221-1.46,3.53-1.46c1.32,0,2.61,0.53,3.54,1.46c0.93,0.93,1.46,2.22,1.46,3.54
			c0,1.31-0.53,2.6-1.46,3.53S357.696,146.394,356.376,146.394z"/>
	</g>
	<g>
		<path style="fill:#F4E84A;" d="M147.206,247.204c-1.32,0-2.61-0.53-3.53-1.46c-0.939-0.93-1.47-2.22-1.47-3.54
			c0-1.31,0.53-2.6,1.47-3.53c0.92-0.93,2.21-1.47,3.53-1.47s2.6,0.54,3.54,1.47c0.93,0.93,1.46,2.22,1.46,3.53
			c0,1.32-0.53,2.61-1.46,3.54C149.816,246.674,148.526,247.204,147.206,247.204z"/>
		<path style="fill:#F4E84A;" d="M156.636,233.554c-1.66-2.21-1.22-5.34,0.99-7l0,0c2.21-1.66,5.35-1.21,7,0.99l0,0
			c1.66,2.21,1.22,5.35-0.99,7l0,0c-0.899,0.68-1.96,1.01-3,1.01l0,0C159.116,235.554,157.616,234.864,156.636,233.554z
			 M306.926,234.544L306.926,234.544c-2.21-1.65-2.66-4.79-1.01-6.99l0,0c1.66-2.22,4.79-2.66,7-1.01l0,0l0,0l0,0
			c2.21,1.66,2.66,4.79,1.01,7l0,0c-0.99,1.31-2.49,2-4.01,2l0,0C308.876,235.544,307.826,235.224,306.926,234.544z
			 M292.576,225.344c-2.431-1.32-3.32-4.36-2-6.79l0,0c1.319-2.42,4.35-3.32,6.779-2l0,0l0,0l0,0c2.421,1.32,3.32,4.36,2,6.78l0,0
			c-0.909,1.67-2.619,2.61-4.399,2.61l0,0C294.156,225.944,293.336,225.754,292.576,225.344z M171.185,223.314
			c-1.34-2.42-0.449-5.46,1.971-6.79l0,0c2.42-1.33,5.46-0.45,6.79,1.97l0,0c1.33,2.42,0.439,5.46-1.971,6.79l0,0
			c-0.77,0.42-1.59,0.62-2.409,0.62l0,0C173.806,225.904,172.096,224.964,171.185,223.314z M277.046,218.294
			c-2.59-0.96-3.91-3.84-2.95-6.43l0,0c0.96-2.59,3.84-3.91,6.42-2.95l0,0c2.59,0.96,3.92,3.83,2.96,6.42l0,0
			c-0.75,2.02-2.659,3.27-4.689,3.27l0,0C278.206,218.604,277.626,218.504,277.046,218.294z M187.026,215.234
			c-0.971-2.59,0.34-5.47,2.93-6.44l0,0c2.58-0.97,5.46,0.34,6.439,2.92l0,0c0.971,2.59-0.34,5.47-2.93,6.44l0,0
			c-0.58,0.22-1.17,0.32-1.75,0.32l0,0C189.685,218.474,187.786,217.234,187.026,215.234z M260.666,213.514h-0.01
			c-2.69-0.59-4.41-3.25-3.82-5.95l0,0c0.59-2.7,3.25-4.41,5.95-3.83l0,0c2.689,0.59,4.41,3.25,3.819,5.95l0,0
			c-0.51,2.34-2.579,3.94-4.88,3.94l0,0C261.376,213.624,261.016,213.584,260.666,213.514z M203.876,209.504
			c-0.59-2.69,1.13-5.36,3.82-5.94l0,0c2.699-0.59,5.359,1.13,5.949,3.82l0,0c0.58,2.7-1.13,5.36-3.829,5.95l0,0
			c-0.351,0.08-0.711,0.11-1.061,0.11l0,0C206.456,213.444,204.386,211.854,203.876,209.504z M243.756,211.054
			c-2.75-0.21-4.82-2.61-4.61-5.36l0,0c0.21-2.75,2.61-4.82,5.36-4.61l0,0c0,0,0,0,0.01,0l0,0c2.75,0.21,4.811,2.61,4.601,5.36l0,0
			c-0.2,2.63-2.391,4.63-4.98,4.63l0,0C244.016,211.074,243.886,211.064,243.756,211.054z M221.366,206.294
			c-0.181-2.76,1.899-5.14,4.66-5.32l0,0c2.75-0.18,5.14,1.9,5.319,4.66l0,0c0.19,2.75-1.899,5.13-4.66,5.32l0,0
			c-0.109,0.01-0.22,0.01-0.33,0.01l0,0C223.746,210.964,221.546,208.934,221.366,206.294z"/>
		<path style="fill:#F4E84A;" d="M323.355,247.204c-1.31,0-2.6-0.53-3.529-1.46c-0.931-0.93-1.471-2.22-1.471-3.54
			c0-1.31,0.54-2.6,1.471-3.53c0.93-0.93,2.22-1.47,3.529-1.47c1.32,0,2.61,0.54,3.54,1.47c0.931,0.93,1.46,2.22,1.46,3.53
			c0,1.32-0.529,2.61-1.46,3.54C325.966,246.674,324.676,247.204,323.355,247.204z"/>
	</g>
</g>
<g>
</g>
<g>
</g>
<g>
</g>
<g>
</g>
<g>
</g>
<g>
</g>
<g>
</g>
<g>
</g>
<g>
</g>
<g>
</g>
<g>
</g>
<g>
</g>
<g>
</g>
<g>
</g>
<g>
</g>
</svg>
