<?xml version="1.0" encoding="iso-8859-1"?>
<!-- Generator: Adobe Illustrator 19.0.0, SVG Export Plug-In . SVG Version: 6.00 Build 0)  -->
<svg version="1.1" id="Layer_1" xmlns="http://www.w3.org/2000/svg" xmlns:xlink="http://www.w3.org/1999/xlink" x="0px" y="0px"
	 viewBox="0 0 512 512" style="enable-background:new 0 0 512 512;" xml:space="preserve">
<g transform="translate(1 1)">
	<g>
		<path style="fill:#FFDD09;" d="M263.533,331.8c-5.12,0-8.533-3.413-8.533-8.533V280.6c0-5.12,3.413-8.533,8.533-8.533
			c5.12,0,8.533,3.413,8.533,8.533v42.667C272.067,328.387,268.653,331.8,263.533,331.8z"/>
		<path style="fill:#FFDD09;" d="M75.8,272.067H7.533c-5.12,0-8.533-3.413-8.533-8.533c0-5.12,3.413-8.533,8.533-8.533H75.8
			c5.12,0,8.533,3.413,8.533,8.533C84.333,268.653,80.92,272.067,75.8,272.067z"/>
		<path style="fill:#FFDD09;" d="M229.4,272.067H127c-5.12,0-8.533-3.413-8.533-8.533c0-5.12,3.413-8.533,8.533-8.533h102.4
			c5.12,0,8.533,3.413,8.533,8.533C237.933,268.653,234.52,272.067,229.4,272.067z"/>
		<path style="fill:#FFDD09;" d="M383,272.067H280.6c-5.12,0-8.533-3.413-8.533-8.533c0-5.12,3.413-8.533,8.533-8.533H383
			c5.12,0,8.533,3.413,8.533,8.533C391.533,268.653,388.12,272.067,383,272.067z"/>
		<path style="fill:#FFDD09;" d="M502.467,272.067H434.2c-5.12,0-8.533-3.413-8.533-8.533c0-5.12,3.413-8.533,8.533-8.533h68.267
			c5.12,0,8.533,3.413,8.533,8.533C511,268.653,507.587,272.067,502.467,272.067z"/>
		<path style="fill:#FFDD09;" d="M127,255c0,14.507-11.093,25.6-25.6,25.6S75.8,269.507,75.8,255c0-14.507,11.093-25.6,25.6-25.6
			S127,240.493,127,255"/>
		<path style="fill:#FFDD09;" d="M280.6,255c0,14.507-11.093,25.6-25.6,25.6c-14.507,0-25.6-11.093-25.6-25.6
			c0-14.507,11.093-25.6,25.6-25.6C269.507,229.4,280.6,240.493,280.6,255"/>
		<path style="fill:#FFDD09;" d="M434.2,255c0,14.507-11.093,25.6-25.6,25.6c-14.507,0-25.6-11.093-25.6-25.6
			c0-14.507,11.093-25.6,25.6-25.6C423.107,229.4,434.2,240.493,434.2,255"/>
		<path style="fill:#FFDD09;" d="M124.44,186.733H78.36c-5.973,0-11.093-5.12-11.093-11.093V152.6h68.267v23.04
			C135.533,181.613,130.413,186.733,124.44,186.733"/>
	</g>
	<path style="fill:#FFFFFF;" d="M67.267,175.64V152.6H50.2v23.04c0,5.973,5.12,11.093,11.093,11.093H78.36
		C72.387,186.733,67.267,181.613,67.267,175.64"/>
	<path style="fill:#FD9808;" d="M135.533,152.6v23.04c0,5.973-5.12,11.093-11.093,11.093h17.067c5.973,0,11.093-5.12,11.093-11.093
		V152.6H135.533z"/>
	<path style="fill:#FFDD09;" d="M173.08,152.6H38.253c-7.68,0-13.653-5.973-13.653-13.653V21.187c0-7.68,5.973-13.653,13.653-13.653
		H173.08c7.68,0,13.653,5.973,13.653,13.653v117.76C186.733,146.627,180.76,152.6,173.08,152.6"/>
	<path style="fill:#FFFFFF;" d="M24.6,138.947V21.187c0-7.68,5.973-13.653,13.653-13.653H21.187c-7.68,0-13.653,5.973-13.653,13.653
		v117.76c0,7.68,5.973,13.653,13.653,13.653h17.067C30.573,152.6,24.6,146.627,24.6,138.947"/>
	<path style="fill:#FD9808;" d="M190.147,7.533H173.08c7.68,0,13.653,5.973,13.653,13.653v117.76c0,7.68-5.973,13.653-13.653,13.653
		h17.067c7.68,0,13.653-5.973,13.653-13.653V21.187C203.8,13.507,197.827,7.533,190.147,7.533"/>
	<path style="fill:#54C9FD;" d="M41.667,109.933V50.2c0-5.12,4.267-8.533,8.533-8.533h85.333c5.12,0,8.533,4.267,8.533,8.533v59.733
		c0,5.12-4.267,8.533-8.533,8.533H50.2C45.933,118.467,41.667,114.2,41.667,109.933"/>
	<path style="fill:#33A9F8;" d="M161.133,41.667h-25.6c5.12,0,8.533,4.267,8.533,8.533v59.733c0,5.12-4.267,8.533-8.533,8.533h25.6
		c5.12,0,8.533-4.267,8.533-8.533V50.2C169.667,45.933,165.4,41.667,161.133,41.667"/>
	<path style="fill:#FFDD09;" d="M431.64,186.733h-46.933c-5.973,0-11.093-5.12-11.093-11.093V152.6h68.267v23.04
		C442.733,181.613,437.613,186.733,431.64,186.733"/>
	<path style="fill:#FFFFFF;" d="M374.467,175.64V152.6H357.4v23.04c0,5.973,5.12,11.093,11.093,11.093h17.067
		C379.587,186.733,374.467,181.613,374.467,175.64"/>
	<path style="fill:#FD9808;" d="M442.733,152.6v23.04c0,5.973-5.12,11.093-11.093,11.093h17.067c5.973,0,11.093-5.12,11.093-11.093
		V152.6H442.733z"/>
	<path style="fill:#FFDD09;" d="M471.747,152.6H336.92c-7.68,0-13.653-5.973-13.653-13.653V21.187
		c0-7.68,5.973-13.653,13.653-13.653h134.827c7.68,0,13.653,5.973,13.653,13.653v117.76C485.4,146.627,479.427,152.6,471.747,152.6"
		/>
	<path style="fill:#FFFFFF;" d="M323.267,138.947V21.187c0-7.68,5.973-13.653,13.653-13.653h-17.067
		c-7.68,0-13.653,5.973-13.653,13.653v117.76c0,7.68,5.973,13.653,13.653,13.653h17.067
		C329.24,152.6,323.267,146.627,323.267,138.947"/>
	<path style="fill:#FD9808;" d="M488.813,7.533h-17.067c7.68,0,13.653,5.973,13.653,13.653v117.76
		c0,7.68-5.973,13.653-13.653,13.653h17.067c7.68,0,13.653-5.973,13.653-13.653V21.187C502.467,13.507,496.493,7.533,488.813,7.533"
		/>
	<path style="fill:#54C9FD;" d="M340.333,109.933V50.2c0-5.12,4.267-8.533,8.533-8.533H434.2c5.12,0,8.533,4.267,8.533,8.533v59.733
		c0,5.12-4.267,8.533-8.533,8.533h-85.333C344.6,118.467,340.333,114.2,340.333,109.933"/>
	<path style="fill:#33A9F8;" d="M459.8,41.667h-25.6c5.12,0,8.533,4.267,8.533,8.533v59.733c0,5.12-4.267,8.533-8.533,8.533h25.6
		c5.12,0,8.533-4.267,8.533-8.533V50.2C468.333,45.933,464.067,41.667,459.8,41.667"/>
	<path style="fill:#FFDD09;" d="M278.04,502.467h-46.933c-5.973,0-11.093-5.12-11.093-11.093v-23.04h68.267v23.04
		C289.133,497.347,284.013,502.467,278.04,502.467"/>
	<path style="fill:#FFFFFF;" d="M220.867,491.373v-23.04H203.8v23.04c0,5.973,5.12,11.093,11.093,11.093h17.067
		C225.987,502.467,220.867,497.347,220.867,491.373"/>
	<path style="fill:#FD9808;" d="M289.133,468.333v23.04c0,5.973-5.12,11.093-11.093,11.093h17.067
		c5.973,0,11.093-5.12,11.093-11.093v-23.04H289.133z"/>
	<path style="fill:#FFDD09;" d="M326.68,468.333H191.853c-7.68,0-13.653-5.973-13.653-13.653V336.92
		c0-7.68,5.973-13.653,13.653-13.653H326.68c7.68,0,13.653,5.973,13.653,13.653v117.76
		C340.333,462.36,334.36,468.333,326.68,468.333"/>
	<path style="fill:#FFFFFF;" d="M178.2,454.68V336.92c0-7.68,5.973-13.653,13.653-13.653h-17.067
		c-7.68,0-13.653,5.973-13.653,13.653v117.76c0,7.68,5.973,13.653,13.653,13.653h17.067C184.173,468.333,178.2,462.36,178.2,454.68"
		/>
	<path style="fill:#FD9808;" d="M343.747,323.267H326.68c7.68,0,13.653,5.973,13.653,13.653v117.76
		c0,7.68-5.973,13.653-13.653,13.653h17.067c7.68,0,13.653-5.973,13.653-13.653V336.92
		C357.4,329.24,351.427,323.267,343.747,323.267"/>
	<path style="fill:#54C9FD;" d="M195.267,425.667v-59.733c0-5.12,4.267-8.533,8.533-8.533h85.333c5.12,0,8.533,4.267,8.533,8.533
		v59.733c0,5.12-4.267,8.533-8.533,8.533H203.8C199.533,434.2,195.267,429.933,195.267,425.667"/>
	<path style="fill:#33A9F8;" d="M314.733,357.4h-25.6c5.12,0,8.533,4.267,8.533,8.533v59.733c0,5.12-4.267,8.533-8.533,8.533h25.6
		c5.12,0,8.533-4.267,8.533-8.533v-59.733C323.267,361.667,319,357.4,314.733,357.4"/>
	<path d="M190.147,161.133H21.187C9.24,161.133-1,150.893-1,138.947V21.187C-1,9.24,9.24-1,21.187-1h168.96
		c11.947,0,22.187,10.24,22.187,22.187v117.76C212.333,150.893,202.093,161.133,190.147,161.133z M21.187,16.067
		c-2.56,0-5.12,2.56-5.12,5.12v117.76c0,2.56,2.56,5.12,5.12,5.12h168.96c2.56,0,5.12-2.56,5.12-5.12V21.187
		c0-2.56-2.56-5.12-5.12-5.12H21.187z"/>
	<path d="M141.507,195.267H61.293c-11.093,0-19.627-8.533-19.627-19.627v-31.573h119.467v31.573
		C161.133,186.733,152.6,195.267,141.507,195.267z M58.733,161.133v14.507c0,1.707,0.853,2.56,2.56,2.56h81.067
		c0.853,0,2.56-0.853,2.56-2.56v-14.507H58.733z"/>
	<path d="M488.813,161.133h-168.96c-11.947,0-22.187-10.24-22.187-22.187V21.187C297.667,9.24,307.907-1,319.853-1h168.96
		C500.76-1,511,9.24,511,21.187v117.76C511,150.893,500.76,161.133,488.813,161.133z M319.853,16.067c-2.56,0-5.12,2.56-5.12,5.12
		v117.76c0,2.56,2.56,5.12,5.12,5.12h168.96c2.56,0,5.12-2.56,5.12-5.12V21.187c0-2.56-2.56-5.12-5.12-5.12H319.853z"/>
	<path d="M459.8,127H348.867c-9.387,0-17.067-7.68-17.067-17.067V50.2c0-9.387,7.68-17.067,17.067-17.067H459.8
		c9.387,0,17.067,7.68,17.067,17.067v59.733C476.867,119.32,469.187,127,459.8,127z M348.867,50.2v59.733l0,0H459.8V50.2H348.867z"
		/>
	<path d="M161.133,127H50.2c-9.387,0-17.067-7.68-17.067-17.067V50.2c0-9.387,7.68-17.067,17.067-17.067h110.933
		c9.387,0,17.067,7.68,17.067,17.067v59.733C178.2,119.32,170.52,127,161.133,127z M50.2,50.2v59.733l0,0h110.933V50.2H50.2z"/>
	<path d="M343.747,476.867h-168.96c-11.947,0-22.187-10.24-22.187-22.187V336.92c0-11.947,10.24-22.187,22.187-22.187h168.96
		c11.947,0,22.187,10.24,22.187,22.187v117.76C365.933,466.627,355.693,476.867,343.747,476.867z M174.787,331.8
		c-2.56,0-5.12,2.56-5.12,5.12v117.76c0,2.56,2.56,5.12,5.12,5.12h168.96c2.56,0,5.12-2.56,5.12-5.12V336.92
		c0-2.56-2.56-5.12-5.12-5.12H174.787z"/>
	<path d="M295.107,511H214.04c-10.24,0-18.773-8.533-18.773-19.627V459.8h119.467v31.573C314.733,502.467,306.2,511,295.107,511z
		 M212.333,476.867v14.507c0,0.853,0.853,2.56,2.56,2.56h81.067c0.853,0,2.56-0.853,2.56-2.56v-14.507H212.333z"/>
	<path d="M314.733,442.733H203.8c-9.387,0-17.067-7.68-17.067-17.067v-59.733c0-9.387,7.68-17.067,17.067-17.067h110.933
		c9.387,0,17.067,7.68,17.067,17.067v59.733C331.8,435.053,324.12,442.733,314.733,442.733z M203.8,365.933v59.733l0,0h110.933
		v-59.733H203.8z"/>
	<path d="M448.707,195.267H367.64c-10.24,0-18.773-8.533-18.773-19.627v-31.573h119.467v31.573
		C468.333,186.733,459.8,195.267,448.707,195.267z M365.933,161.133v14.507c0,0.853,0.853,2.56,2.56,2.56h81.067
		c0.853,0,2.56-0.853,2.56-2.56v-14.507H365.933z"/>
	<path d="M75.8,263.533H7.533C2.413,263.533-1,260.12-1,255s3.413-8.533,8.533-8.533H75.8c5.12,0,8.533,3.413,8.533,8.533
		S80.92,263.533,75.8,263.533z"/>
	<path d="M101.4,237.933c-5.12,0-8.533-3.413-8.533-8.533v-42.667c0-5.12,3.413-8.533,8.533-8.533c5.12,0,8.533,3.413,8.533,8.533
		V229.4C109.933,234.52,106.52,237.933,101.4,237.933z"/>
	<path d="M408.6,237.933c-5.12,0-8.533-3.413-8.533-8.533v-42.667c0-5.12,3.413-8.533,8.533-8.533c5.12,0,8.533,3.413,8.533,8.533
		V229.4C417.133,234.52,413.72,237.933,408.6,237.933z"/>
	<path d="M229.4,263.533H127c-5.12,0-8.533-3.413-8.533-8.533s3.413-8.533,8.533-8.533h102.4c5.12,0,8.533,3.413,8.533,8.533
		S234.52,263.533,229.4,263.533z"/>
	<path d="M383,263.533H280.6c-5.12,0-8.533-3.413-8.533-8.533s3.413-8.533,8.533-8.533H383c5.12,0,8.533,3.413,8.533,8.533
		S388.12,263.533,383,263.533z"/>
	<path d="M502.467,263.533H434.2c-5.12,0-8.533-3.413-8.533-8.533s3.413-8.533,8.533-8.533h68.267c5.12,0,8.533,3.413,8.533,8.533
		S507.587,263.533,502.467,263.533z"/>
	<path d="M101.4,289.133c-18.773,0-34.133-15.36-34.133-34.133s15.36-34.133,34.133-34.133s34.133,15.36,34.133,34.133
		S120.173,289.133,101.4,289.133z M101.4,237.933c-9.387,0-17.067,7.68-17.067,17.067s7.68,17.067,17.067,17.067
		s17.067-7.68,17.067-17.067S110.787,237.933,101.4,237.933z"/>
	<path d="M255,289.133c-18.773,0-34.133-15.36-34.133-34.133s15.36-34.133,34.133-34.133s34.133,15.36,34.133,34.133
		S273.773,289.133,255,289.133z M255,237.933c-9.387,0-17.067,7.68-17.067,17.067s7.68,17.067,17.067,17.067
		s17.067-7.68,17.067-17.067S264.387,237.933,255,237.933z"/>
	<path d="M408.6,289.133c-18.773,0-34.133-15.36-34.133-34.133s15.36-34.133,34.133-34.133c18.773,0,34.133,15.36,34.133,34.133
		S427.373,289.133,408.6,289.133z M408.6,237.933c-9.387,0-17.067,7.68-17.067,17.067s7.68,17.067,17.067,17.067
		c9.387,0,17.067-7.68,17.067-17.067S417.987,237.933,408.6,237.933z"/>
	<path d="M255,331.8c-5.12,0-8.533-3.413-8.533-8.533V280.6c0-5.12,3.413-8.533,8.533-8.533s8.533,3.413,8.533,8.533v42.667
		C263.533,328.387,260.12,331.8,255,331.8z"/>
</g>
<g>
</g>
<g>
</g>
<g>
</g>
<g>
</g>
<g>
</g>
<g>
</g>
<g>
</g>
<g>
</g>
<g>
</g>
<g>
</g>
<g>
</g>
<g>
</g>
<g>
</g>
<g>
</g>
<g>
</g>
</svg>
